<svg xmlns="http://www.w3.org/2000/svg"  viewBox="0 0 64 64" width="50px" height="50px"><path d="M 36.847656 9.3242188 C 35.300656 9.3242187 33.849766 9.9226719 32.759766 11.013672 L 11.263672 32.509766 C 10.165672 33.607766 9.5652187 35.071859 9.5742188 36.630859 C 9.5822188 38.181859 10.191969 39.640234 11.292969 40.740234 L 22.832031 52.28125 C 23.932031 53.38125 25.449 54.021297 27 54.029297 L 47.076172 54.029297 C 48.181172 54.029297 49.076172 53.133297 49.076172 52.029297 C 49.076172 50.925297 48.180172 50.029297 47.076172 50.029297 L 33.341797 50.029297 L 52.560547 30.8125 C 53.691547 29.6805 54.252094 28.191219 54.246094 26.699219 C 54.239094 25.210219 53.66825 23.719031 52.53125 22.582031 L 40.990234 11.042969 C 39.889234 9.9429688 38.398656 9.3322187 36.847656 9.3242188 z M 36.861328 13.398438 C 37.373078 13.398438 37.884891 13.593875 38.275391 13.984375 L 49.589844 25.298828 C 50.370844 26.079828 50.370844 27.345953 49.589844 28.126953 L 37.568359 40.148438 L 23.425781 26.005859 L 35.447266 13.984375 C 35.837766 13.593875 36.349578 13.398438 36.861328 13.398438 z M 20.597656 28.833984 L 34.740234 42.976562 L 28.376953 49.339844 C 27.595953 50.120844 26.329828 50.120844 25.548828 49.339844 L 14.234375 38.025391 C 13.453375 37.244391 13.453375 35.978266 14.234375 35.197266 L 20.597656 28.833984 z"/></svg>