<svg xmlns="http://www.w3.org/2000/svg"  viewBox="0 0 64 64" width="50px" height="50px"><path d="M 18 12 C 14.69 12 12 14.69 12 18 L 12 46 C 12 49.31 14.69 52 18 52 L 46 52 C 49.31 52 52 49.31 52 46 L 52 19 C 52 18.47 51.790156 17.959844 51.410156 17.589844 L 46.410156 12.589844 C 46.040156 12.209844 45.53 12 45 12 L 42 12 L 42 23 C 42 24.65 40.65 26 39 26 L 24 26 C 22.35 26 21 24.65 21 23 L 21 12 L 18 12 z M 33 13 C 32.448 13 32 13.448 32 14 L 32 22 C 32 22.552 32.448 23 33 23 L 36 23 C 36.552 23 37 22.552 37 22 L 37 14 C 37 13.448 36.552 13 36 13 L 33 13 z M 23 35 L 41 35 C 42.65 35 44 36.35 44 38 L 44 48 L 20 48 L 20 38 C 20 36.35 21.35 35 23 35 z"/></svg>